<svg aria-hidden="true" style="position: absolute; width: 0; height: 0; overflow: hidden;" version="1.1" xmlns="http://www.w3.org/2000/svg" xmlns:xlink="http://www.w3.org/1999/xlink">
<defs>
<symbol id="user" viewBox="0 0 14 20">
<title>user</title>
<path d="M14.286 15.614c0 1.629-1.071 2.958-2.377 2.958h-9.531c-1.306 0-2.377-1.328-2.377-2.958 0-2.935 0.725-6.328 3.65-6.328 0.904 0.882 2.132 1.429 3.493 1.429s2.589-0.547 3.493-1.429c2.924 0 3.65 3.393 3.65 6.328zM11.429 5.714c0 2.366-1.92 4.286-4.286 4.286s-4.286-1.92-4.286-4.286 1.92-4.286 4.286-4.286 4.286 1.92 4.286 4.286z"></path>
</symbol>
<symbol id="home" viewBox="0 0 19 20">
<title>home</title>
<path d="M15.714 11.071v5.357c0 0.391-0.324 0.714-0.714 0.714h-4.286v-4.286h-2.857v4.286h-4.286c-0.391 0-0.714-0.324-0.714-0.714v-5.357c0-0.022 0.011-0.045 0.011-0.067l6.417-5.29 6.417 5.29c0.011 0.022 0.011 0.045 0.011 0.067zM18.203 10.301l-0.692 0.826c-0.056 0.067-0.145 0.112-0.234 0.123h-0.033c-0.089 0-0.167-0.022-0.234-0.078l-7.723-6.44-7.723 6.44c-0.078 0.056-0.167 0.089-0.268 0.078-0.089-0.011-0.179-0.056-0.234-0.123l-0.692-0.826c-0.123-0.145-0.1-0.379 0.045-0.502l8.025-6.685c0.469-0.391 1.228-0.391 1.696 0l2.723 2.277v-2.176c0-0.201 0.156-0.357 0.357-0.357h2.143c0.201 0 0.357 0.156 0.357 0.357v4.554l2.444 2.031c0.145 0.123 0.167 0.357 0.045 0.502z"></path>
</symbol>
<symbol id="cogs" viewBox="0 0 21 20">
<title>cogs</title>
<path d="M10 10c0-1.574-1.283-2.857-2.857-2.857s-2.857 1.283-2.857 2.857 1.283 2.857 2.857 2.857 2.857-1.283 2.857-2.857zM18.571 15.714c0-0.781-0.647-1.429-1.429-1.429s-1.429 0.647-1.429 1.429c0 0.792 0.647 1.429 1.429 1.429 0.792 0 1.429-0.647 1.429-1.429zM18.571 4.286c0-0.781-0.647-1.429-1.429-1.429s-1.429 0.647-1.429 1.429c0 0.792 0.647 1.429 1.429 1.429 0.792 0 1.429-0.647 1.429-1.429zM14.286 8.984v2.065c0 0.145-0.112 0.313-0.257 0.335l-1.73 0.268c-0.089 0.29-0.212 0.569-0.357 0.848 0.313 0.446 0.647 0.859 1.004 1.283 0.045 0.067 0.078 0.134 0.078 0.223 0 0.078-0.022 0.156-0.078 0.212-0.223 0.301-1.473 1.663-1.797 1.663-0.089 0-0.167-0.033-0.234-0.078l-1.283-1.004c-0.279 0.145-0.558 0.257-0.859 0.346-0.056 0.569-0.112 1.183-0.257 1.73-0.045 0.156-0.179 0.268-0.335 0.268h-2.076c-0.156 0-0.313-0.123-0.335-0.279l-0.257-1.708c-0.29-0.089-0.569-0.212-0.837-0.346l-1.317 0.993c-0.056 0.056-0.145 0.078-0.223 0.078-0.089 0-0.167-0.033-0.234-0.089-0.29-0.268-1.607-1.462-1.607-1.786 0-0.078 0.033-0.145 0.078-0.212 0.324-0.424 0.658-0.837 0.982-1.272-0.156-0.301-0.29-0.603-0.391-0.915l-1.696-0.268c-0.156-0.022-0.268-0.167-0.268-0.324v-2.065c0-0.145 0.112-0.313 0.257-0.335l1.73-0.268c0.089-0.29 0.212-0.569 0.357-0.848-0.313-0.446-0.647-0.859-1.004-1.283-0.045-0.067-0.078-0.145-0.078-0.223s0.022-0.156 0.078-0.223c0.223-0.301 1.473-1.652 1.797-1.652 0.089 0 0.167 0.033 0.234 0.078l1.283 1.004c0.279-0.145 0.558-0.257 0.859-0.357 0.056-0.558 0.112-1.172 0.257-1.719 0.045-0.156 0.179-0.268 0.335-0.268h2.076c0.156 0 0.313 0.123 0.335 0.279l0.257 1.708c0.29 0.089 0.569 0.212 0.837 0.346l1.317-0.993c0.067-0.056 0.145-0.078 0.223-0.078 0.089 0 0.167 0.033 0.234 0.089 0.29 0.268 1.607 1.473 1.607 1.786 0 0.078-0.033 0.145-0.078 0.212-0.324 0.435-0.658 0.837-0.971 1.272 0.145 0.301 0.279 0.603 0.379 0.915l1.696 0.257c0.156 0.033 0.268 0.179 0.268 0.335zM21.429 14.933v1.563c0 0.167-1.44 0.324-1.663 0.346-0.089 0.212-0.201 0.402-0.335 0.58 0.1 0.223 0.569 1.339 0.569 1.54 0 0.033-0.011 0.056-0.045 0.078-0.134 0.078-1.328 0.792-1.384 0.792-0.145 0-0.982-1.116-1.094-1.283-0.112 0.011-0.223 0.022-0.335 0.022s-0.223-0.011-0.335-0.022c-0.112 0.167-0.949 1.283-1.094 1.283-0.056 0-1.25-0.714-1.384-0.792-0.033-0.022-0.045-0.056-0.045-0.078 0-0.19 0.469-1.317 0.569-1.54-0.134-0.179-0.246-0.368-0.335-0.58-0.223-0.022-1.663-0.179-1.663-0.346v-1.563c0-0.167 1.44-0.324 1.663-0.346 0.089-0.201 0.201-0.402 0.335-0.58-0.1-0.223-0.569-1.35-0.569-1.54 0-0.022 0.011-0.056 0.045-0.078 0.134-0.067 1.328-0.781 1.384-0.781 0.145 0 0.982 1.105 1.094 1.272 0.112-0.011 0.223-0.022 0.335-0.022s0.223 0.011 0.335 0.022c0.313-0.435 0.647-0.871 1.027-1.25l0.067-0.022c0.056 0 1.25 0.703 1.384 0.781 0.033 0.022 0.045 0.056 0.045 0.078 0 0.201-0.469 1.317-0.569 1.54 0.134 0.179 0.246 0.379 0.335 0.58 0.223 0.022 1.663 0.179 1.663 0.346zM21.429 3.504v1.563c0 0.167-1.44 0.324-1.663 0.346-0.089 0.212-0.201 0.402-0.335 0.58 0.1 0.223 0.569 1.339 0.569 1.54 0 0.033-0.011 0.056-0.045 0.078-0.134 0.078-1.328 0.792-1.384 0.792-0.145 0-0.982-1.116-1.094-1.283-0.112 0.011-0.223 0.022-0.335 0.022s-0.223-0.011-0.335-0.022c-0.112 0.167-0.949 1.283-1.094 1.283-0.056 0-1.25-0.714-1.384-0.792-0.033-0.022-0.045-0.056-0.045-0.078 0-0.19 0.469-1.317 0.569-1.54-0.134-0.179-0.246-0.368-0.335-0.58-0.223-0.022-1.663-0.179-1.663-0.346v-1.563c0-0.167 1.44-0.324 1.663-0.346 0.089-0.201 0.201-0.402 0.335-0.58-0.1-0.223-0.569-1.35-0.569-1.54 0-0.022 0.011-0.056 0.045-0.078 0.134-0.067 1.328-0.781 1.384-0.781 0.145 0 0.982 1.105 1.094 1.272 0.112-0.011 0.223-0.022 0.335-0.022s0.223 0.011 0.335 0.022c0.313-0.435 0.647-0.871 1.027-1.25l0.067-0.022c0.056 0 1.25 0.703 1.384 0.781 0.033 0.022 0.045 0.056 0.045 0.078 0 0.201-0.469 1.317-0.569 1.54 0.134 0.179 0.246 0.379 0.335 0.58 0.223 0.022 1.663 0.179 1.663 0.346z"></path>
</symbol>
<symbol id="linkedin" viewBox="0 0 17 20">
<title>linkedin-square</title>
<path d="M2.645 15.781h2.578v-7.746h-2.578v7.746zM5.391 5.647c-0.011-0.759-0.558-1.339-1.44-1.339s-1.462 0.58-1.462 1.339c0 0.737 0.558 1.339 1.429 1.339h0.011c0.904 0 1.462-0.603 1.462-1.339zM11.92 15.781h2.578v-4.442c0-2.377-1.272-3.482-2.969-3.482-1.384 0-1.998 0.77-2.333 1.306h0.022v-1.127h-2.578s0.033 0.725 0 7.746v0h2.578v-4.33c0-0.223 0.011-0.458 0.078-0.625 0.19-0.458 0.614-0.938 1.328-0.938 0.926 0 1.295 0.703 1.295 1.752v4.141zM17.143 4.643v10.714c0 1.775-1.44 3.214-3.214 3.214h-10.714c-1.775 0-3.214-1.44-3.214-3.214v-10.714c0-1.775 1.44-3.214 3.214-3.214h10.714c1.775 0 3.214 1.44 3.214 3.214z"></path>
</symbol>
<symbol id="github" viewBox="0 0 17 20">
<title>github</title>
<path d="M8.571 1.429c4.732 0 8.571 3.839 8.571 8.571 0 3.783-2.455 6.998-5.859 8.136-0.435 0.078-0.592-0.19-0.592-0.413 0-0.279 0.011-1.205 0.011-2.355 0-0.804-0.268-1.317-0.58-1.585 1.908-0.212 3.917-0.938 3.917-4.23 0-0.938-0.335-1.696-0.882-2.299 0.089-0.223 0.379-1.094-0.089-2.277-0.714-0.223-2.355 0.882-2.355 0.882-0.681-0.19-1.417-0.29-2.143-0.29s-1.462 0.1-2.143 0.29c0 0-1.641-1.105-2.355-0.882-0.469 1.183-0.179 2.054-0.089 2.277-0.547 0.603-0.882 1.362-0.882 2.299 0 3.281 1.998 4.018 3.906 4.23-0.246 0.223-0.469 0.603-0.547 1.15-0.491 0.223-1.741 0.603-2.489-0.714-0.469-0.815-1.317-0.882-1.317-0.882-0.837-0.011-0.056 0.525-0.056 0.525 0.558 0.257 0.949 1.25 0.949 1.25 0.502 1.529 2.891 1.016 2.891 1.016 0 0.714 0.011 1.384 0.011 1.596 0 0.223-0.156 0.491-0.592 0.413-3.404-1.138-5.859-4.353-5.859-8.136 0-4.732 3.839-8.571 8.571-8.571zM3.248 13.739c0.022-0.045-0.011-0.1-0.078-0.134-0.067-0.022-0.123-0.011-0.145 0.022-0.022 0.045 0.011 0.1 0.078 0.134 0.056 0.033 0.123 0.022 0.145-0.022zM3.594 14.118c0.045-0.033 0.033-0.112-0.022-0.179-0.056-0.056-0.134-0.078-0.179-0.033-0.045 0.033-0.033 0.112 0.022 0.179 0.056 0.056 0.134 0.078 0.179 0.033zM3.929 14.621c0.056-0.045 0.056-0.134 0-0.212-0.045-0.078-0.134-0.112-0.19-0.067-0.056 0.033-0.056 0.123 0 0.201s0.145 0.112 0.19 0.078zM4.397 15.089c0.045-0.045 0.022-0.145-0.045-0.212-0.078-0.078-0.179-0.089-0.223-0.033-0.056 0.045-0.033 0.145 0.045 0.212 0.078 0.078 0.179 0.089 0.223 0.033zM5.033 15.368c0.022-0.067-0.045-0.145-0.145-0.179-0.089-0.022-0.19 0.011-0.212 0.078s0.045 0.145 0.145 0.167c0.089 0.033 0.19 0 0.212-0.067zM5.737 15.424c0-0.078-0.089-0.134-0.19-0.123-0.1 0-0.179 0.056-0.179 0.123 0 0.078 0.078 0.134 0.19 0.123 0.1 0 0.179-0.056 0.179-0.123zM6.384 15.313c-0.011-0.067-0.1-0.112-0.201-0.1-0.1 0.022-0.167 0.089-0.156 0.167 0.011 0.067 0.1 0.112 0.201 0.089s0.167-0.089 0.156-0.156z"></path>
</symbol>
<symbol id="globe" viewBox="0 0 17 20">
<title>globe</title>
<path d="M8.571 1.429c4.732 0 8.571 3.839 8.571 8.571s-3.839 8.571-8.571 8.571-8.571-3.839-8.571-8.571 3.839-8.571 8.571-8.571zM11.629 7.243c-0.089 0.067-0.145 0.19-0.257 0.212 0.056-0.011 0.112-0.212 0.145-0.257 0.067-0.078 0.156-0.123 0.246-0.167 0.19-0.078 0.379-0.1 0.58-0.134 0.19-0.045 0.424-0.045 0.569 0.123-0.033-0.033 0.234-0.268 0.268-0.279 0.1-0.056 0.268-0.033 0.335-0.134 0.022-0.033 0.022-0.246 0.022-0.246-0.19 0.022-0.257-0.156-0.268-0.313 0 0.011-0.022 0.045-0.067 0.089 0.011-0.167-0.201-0.045-0.279-0.067-0.257-0.067-0.223-0.246-0.301-0.435-0.045-0.1-0.167-0.134-0.212-0.234-0.045-0.067-0.067-0.212-0.167-0.223-0.067-0.011-0.19 0.234-0.212 0.223-0.1-0.056-0.145 0.022-0.223 0.067-0.067 0.045-0.123 0.022-0.19 0.056 0.201-0.067-0.089-0.179-0.19-0.156 0.156-0.045 0.078-0.212-0.011-0.29h0.056c-0.022-0.1-0.335-0.19-0.435-0.257s-0.636-0.179-0.748-0.112c-0.134 0.078 0.033 0.301 0.033 0.413 0.011 0.134-0.134 0.167-0.134 0.279 0 0.19 0.357 0.156 0.268 0.413-0.056 0.156-0.268 0.19-0.357 0.313-0.089 0.112 0.011 0.313 0.1 0.391 0.089 0.067-0.156 0.179-0.19 0.201-0.19 0.089-0.335-0.19-0.379-0.357-0.033-0.123-0.045-0.268-0.179-0.335-0.067-0.022-0.279-0.056-0.324 0.011-0.067-0.167-0.301-0.234-0.458-0.29-0.223-0.078-0.413-0.078-0.647-0.045 0.078-0.011-0.022-0.357-0.212-0.301 0.056-0.112 0.033-0.234 0.056-0.346 0.022-0.089 0.067-0.179 0.134-0.257 0.022-0.045 0.268-0.301 0.19-0.313 0.19 0.022 0.402 0.033 0.558-0.123 0.1-0.1 0.145-0.268 0.246-0.379 0.145-0.167 0.324 0.045 0.48 0.056 0.223 0.011 0.212-0.234 0.089-0.346 0.145 0.011 0.022-0.257-0.056-0.29-0.1-0.033-0.48 0.067-0.279 0.145-0.045-0.022-0.313 0.536-0.469 0.257-0.045-0.056-0.067-0.29-0.167-0.301-0.089 0-0.145 0.1-0.179 0.167 0.056-0.145-0.313-0.246-0.391-0.257 0.167-0.112 0.033-0.234-0.089-0.301-0.089-0.056-0.368-0.1-0.446-0.011-0.212 0.257 0.223 0.29 0.335 0.357 0.033 0.022 0.167 0.1 0.089 0.156-0.067 0.033-0.268 0.089-0.29 0.134-0.067 0.1 0.078 0.212-0.022 0.313-0.1-0.1-0.1-0.268-0.179-0.379 0.1 0.123-0.402 0.056-0.391 0.056-0.167 0-0.435 0.112-0.558-0.056-0.022-0.045-0.022-0.301 0.045-0.246-0.1-0.078-0.167-0.156-0.234-0.201-0.368 0.123-0.714 0.279-1.049 0.458 0.045 0.011 0.078 0.011 0.134-0.011 0.089-0.033 0.167-0.089 0.257-0.134 0.112-0.045 0.346-0.179 0.469-0.078 0.011-0.022 0.045-0.045 0.056-0.056 0.078 0.089 0.156 0.179 0.223 0.279-0.089-0.045-0.234-0.022-0.335-0.011-0.078 0.022-0.212 0.045-0.246 0.134 0.033 0.056 0.078 0.145 0.056 0.201-0.145-0.1-0.257-0.268-0.458-0.29-0.089 0-0.179 0-0.246 0.011-1.071 0.592-1.975 1.451-2.623 2.478 0.045 0.045 0.089 0.078 0.134 0.089 0.112 0.033 0 0.357 0.212 0.19 0.067 0.056 0.078 0.134 0.033 0.212 0.011-0.011 0.458 0.279 0.491 0.301 0.078 0.067 0.201 0.145 0.234 0.234 0.022 0.078-0.045 0.167-0.112 0.201-0.011-0.022-0.179-0.19-0.201-0.145-0.033 0.056 0 0.357 0.123 0.346-0.179 0.011-0.1 0.703-0.145 0.837 0 0.011 0.022 0.011 0.022 0.011-0.033 0.134 0.078 0.658 0.301 0.603-0.145 0.033 0.257 0.547 0.313 0.58 0.145 0.1 0.313 0.167 0.413 0.313 0.112 0.156 0.112 0.391 0.268 0.513-0.045 0.134 0.234 0.29 0.223 0.48-0.022 0.011-0.033 0.011-0.056 0.022 0.056 0.156 0.268 0.156 0.346 0.301 0.045 0.089 0 0.301 0.145 0.257 0.022-0.246-0.145-0.491-0.268-0.692-0.067-0.112-0.134-0.212-0.19-0.324-0.056-0.1-0.067-0.223-0.112-0.335 0.045 0.011 0.29 0.1 0.268 0.134-0.089 0.223 0.357 0.614 0.48 0.759 0.033 0.033 0.29 0.368 0.156 0.368 0.145 0 0.346 0.223 0.413 0.335 0.1 0.167 0.078 0.379 0.145 0.558 0.067 0.223 0.379 0.324 0.558 0.424 0.156 0.078 0.29 0.19 0.446 0.246 0.234 0.089 0.29 0.011 0.491-0.022 0.29-0.045 0.324 0.279 0.558 0.402 0.145 0.078 0.458 0.19 0.614 0.123-0.067 0.022 0.234 0.48 0.257 0.513 0.1 0.134 0.29 0.201 0.402 0.335 0.033-0.022 0.067-0.056 0.078-0.1-0.045 0.123 0.167 0.357 0.279 0.335 0.123-0.022 0.156-0.268 0.156-0.357-0.223 0.112-0.424 0.022-0.547-0.201-0.022-0.056-0.201-0.368-0.045-0.368 0.212 0 0.067-0.167 0.045-0.324s-0.179-0.257-0.257-0.391c-0.067 0.134-0.29 0.1-0.357-0.011 0 0.033-0.033 0.089-0.033 0.134-0.056 0-0.112 0.011-0.167-0.011 0.022-0.134 0.033-0.301 0.067-0.446 0.056-0.201 0.424-0.592-0.056-0.569-0.167 0.011-0.234 0.078-0.29 0.223-0.056 0.134-0.033 0.257-0.19 0.324-0.1 0.045-0.435 0.022-0.536-0.033-0.212-0.123-0.357-0.513-0.357-0.737-0.011-0.301 0.145-0.569 0-0.848 0.067-0.056 0.134-0.167 0.212-0.223 0.067-0.045 0.145 0.033 0.179-0.1-0.033-0.022-0.078-0.067-0.089-0.067 0.167 0.078 0.48-0.112 0.625 0 0.089 0.067 0.19 0.089 0.246-0.022 0.011-0.033-0.078-0.167-0.033-0.257 0.033 0.19 0.156 0.223 0.324 0.1 0.067 0.067 0.246 0.045 0.368 0.112 0.123 0.078 0.145 0.201 0.29 0.033 0.089 0.134 0.1 0.134 0.134 0.268 0.033 0.123 0.1 0.435 0.212 0.491 0.234 0.145 0.179-0.246 0.156-0.379-0.011-0.011-0.011-0.379-0.022-0.379-0.357-0.078-0.223-0.357-0.022-0.547 0.033-0.022 0.29-0.112 0.402-0.201 0.1-0.089 0.223-0.246 0.167-0.391 0.056 0 0.1-0.045 0.123-0.1-0.033-0.011-0.167-0.123-0.19-0.112 0.078-0.045 0.067-0.112 0.022-0.179 0.112-0.067 0.056-0.19 0.167-0.234 0.123 0.167 0.368-0.022 0.246-0.156 0.112-0.156 0.368-0.078 0.435-0.223 0.167 0.045 0.045-0.167 0.134-0.29 0.078-0.1 0.212-0.1 0.313-0.156 0 0.011 0.279-0.156 0.19-0.167 0.19 0.022 0.569-0.179 0.279-0.346 0.045-0.1-0.1-0.145-0.201-0.167 0.078-0.022 0.179 0.022 0.246-0.022 0.145-0.1 0.045-0.145-0.078-0.179-0.156-0.045-0.357 0.056-0.48 0.134zM9.81 17.031c1.529-0.268 2.891-1.027 3.917-2.109-0.067-0.067-0.19-0.045-0.279-0.089-0.089-0.033-0.156-0.067-0.268-0.089 0.022-0.223-0.223-0.301-0.379-0.413-0.145-0.112-0.234-0.234-0.446-0.19-0.022 0.011-0.246 0.089-0.201 0.134-0.145-0.123-0.212-0.19-0.402-0.246-0.179-0.056-0.301-0.279-0.48-0.078-0.089 0.089-0.045 0.223-0.089 0.313-0.145-0.123 0.134-0.268 0.022-0.402-0.134-0.156-0.368 0.1-0.48 0.167-0.067 0.056-0.145 0.078-0.19 0.145-0.056 0.078-0.078 0.179-0.123 0.257-0.033-0.089-0.223-0.067-0.234-0.134 0.045 0.268 0.045 0.547 0.1 0.815 0.033 0.156 0 0.413-0.134 0.536s-0.301 0.257-0.324 0.446c-0.022 0.134 0.011 0.257 0.134 0.29 0.011 0.167-0.179 0.29-0.167 0.469 0 0.011 0.011 0.123 0.022 0.179z"></path>
</symbol>
<symbol id="puzzle-piece" viewBox="0 0 19 20">
<title>puzzle-piece</title>
<path d="M18.571 12.254c0 1.15-0.658 2.109-1.875 2.109-1.362 0-1.719-1.239-2.946-1.239-0.893 0-1.228 0.558-1.228 1.384 0 0.871 0.357 1.708 0.346 2.567v0.056c-0.123 0-0.246 0-0.368 0.011-1.15 0.112-2.31 0.335-3.471 0.335-0.792 0-1.618-0.313-1.618-1.228 0-1.228 1.239-1.585 1.239-2.946 0-1.217-0.96-1.875-2.109-1.875-1.172 0-2.254 0.647-2.254 1.931 0 1.417 1.083 2.031 1.083 2.801 0 0.391-0.246 0.737-0.513 0.993-0.346 0.324-0.837 0.391-1.306 0.391-0.915 0-1.83-0.123-2.734-0.268-0.201-0.033-0.413-0.056-0.614-0.089l-0.145-0.022c-0.022-0.011-0.056-0.011-0.056-0.022v-11.429c0.045 0.033 0.703 0.112 0.815 0.134 0.904 0.145 1.819 0.268 2.734 0.268 0.469 0 0.96-0.067 1.306-0.391 0.268-0.257 0.513-0.603 0.513-0.993 0-0.77-1.083-1.384-1.083-2.801 0-1.283 1.083-1.931 2.266-1.931 1.138 0 2.098 0.658 2.098 1.875 0 1.362-1.239 1.719-1.239 2.946 0 0.915 0.826 1.228 1.618 1.228 1.283 0 2.556-0.29 3.828-0.357v0.022c-0.033 0.045-0.112 0.703-0.134 0.815-0.145 0.904-0.268 1.819-0.268 2.734 0 0.469 0.067 0.96 0.391 1.306 0.257 0.268 0.603 0.513 0.993 0.513 0.77 0 1.384-1.083 2.801-1.083 1.283 0 1.931 1.083 1.931 2.254z"></path>
</symbol>
<symbol id="stack-exchange" viewBox="0 0 14 20">
<title>stack-exchange</title>
<path d="M14.051 13.984v0.737c0 1.261-0.982 2.277-2.188 2.277h-0.636l-2.902 3.002v-3.002h-5.904c-1.205 0-2.188-1.016-2.188-2.277v-0.737h13.817zM14.051 10.346v2.846h-13.817v-2.846h13.817zM14.051 6.685v2.846h-13.817v-2.846h13.817zM14.051 5.123v0.748h-13.817v-0.748c0-1.25 0.982-2.266 2.188-2.266h9.442c1.205 0 2.188 1.016 2.188 2.266z"></path>
</symbol>
<symbol id="cube" viewBox="0 0 19 20">
<title>cube</title>
<path d="M10 18.181l7.143-3.895v-7.098l-7.143 2.6v8.393zM9.286 8.527l7.79-2.835-7.79-2.835-7.79 2.835zM18.571 5.714v8.571c0 0.525-0.29 1.004-0.748 1.25l-7.857 4.286c-0.212 0.123-0.446 0.179-0.681 0.179s-0.469-0.056-0.681-0.179l-7.857-4.286c-0.458-0.246-0.748-0.725-0.748-1.25v-8.571c0-0.603 0.379-1.138 0.938-1.339l7.857-2.857c0.156-0.056 0.324-0.089 0.491-0.089s0.335 0.033 0.491 0.089l7.857 2.857c0.558 0.201 0.938 0.737 0.938 1.339z"></path>
</symbol>
<symbol id="cubes" viewBox="0 0 25 20">
<title>cubes</title>
<path d="M7.143 18.214l4.286-2.143v-3.504l-4.286 1.83v3.817zM6.429 13.147l4.509-1.931-4.509-1.931-4.509 1.931zM18.571 18.214l4.286-2.143v-3.504l-4.286 1.83v3.817zM17.857 13.147l4.509-1.931-4.509-1.931-4.509 1.931zM12.857 9.877l4.286-1.842v-2.969l-4.286 1.83v2.98zM12.143 5.647l4.922-2.109-4.922-2.109-4.922 2.109zM24.286 11.429v4.643c0 0.536-0.301 1.038-0.792 1.272l-5 2.5c-0.201 0.112-0.413 0.156-0.636 0.156s-0.435-0.045-0.636-0.156l-5-2.5c-0.033-0.011-0.056-0.022-0.078-0.045-0.022 0.022-0.045 0.033-0.078 0.045l-5 2.5c-0.201 0.112-0.413 0.156-0.636 0.156s-0.435-0.045-0.636-0.156l-5-2.5c-0.491-0.234-0.792-0.737-0.792-1.272v-4.643c0-0.569 0.346-1.083 0.871-1.317l4.844-2.076v-4.464c0-0.569 0.346-1.083 0.871-1.317l5-2.143c0.179-0.078 0.368-0.112 0.558-0.112s0.379 0.033 0.558 0.112l5 2.143c0.525 0.234 0.871 0.748 0.871 1.317v4.464l4.844 2.076c0.536 0.234 0.871 0.748 0.871 1.317z"></path>
</symbol>
<symbol id="file-archive" viewBox="0 0 17 20">
<title>file-archive-o</title>
<path d="M7.143 4.286v-1.429h-1.429v1.429h1.429zM8.571 5.714v-1.429h-1.429v1.429h1.429zM7.143 7.143v-1.429h-1.429v1.429h1.429zM8.571 8.571v-1.429h-1.429v1.429h1.429zM16.384 4.241c0.413 0.413 0.759 1.239 0.759 1.83v12.857c0 0.592-0.48 1.071-1.071 1.071h-15c-0.592 0-1.071-0.48-1.071-1.071v-17.857c0-0.592 0.48-1.071 1.071-1.071h10c0.592 0 1.417 0.346 1.83 0.759zM11.429 1.518v4.196h4.196c-0.067-0.19-0.167-0.379-0.246-0.458l-3.493-3.493c-0.078-0.078-0.268-0.179-0.458-0.246zM15.714 18.571v-11.429h-4.643c-0.592 0-1.071-0.48-1.071-1.071v-4.643h-1.429v1.429h-1.429v-1.429h-5.714v17.143h14.286zM8.717 10.525c0.949 3.203 1.194 3.895 1.194 3.895 0.056 0.19 0.089 0.379 0.089 0.58 0 1.239-1.205 2.143-2.857 2.143s-2.857-0.904-2.857-2.143c0-0.201 0.033-0.391 0.089-0.58 0 0 0.234-0.692 1.339-4.42v-1.429h1.429v1.429h0.882c0.324 0 0.603 0.212 0.692 0.525zM7.143 15.714c0.792 0 1.429-0.324 1.429-0.714s-0.636-0.714-1.429-0.714-1.429 0.324-1.429 0.714 0.636 0.714 1.429 0.714z"></path>
</symbol>
<symbol id="calculator" viewBox="0 0 19 20">
<title>calculator</title>
<path d="M4.286 17.143c0-0.792-0.636-1.429-1.429-1.429s-1.429 0.636-1.429 1.429 0.636 1.429 1.429 1.429 1.429-0.636 1.429-1.429zM8.571 17.143c0-0.792-0.636-1.429-1.429-1.429s-1.429 0.636-1.429 1.429 0.636 1.429 1.429 1.429 1.429-0.636 1.429-1.429zM4.286 12.857c0-0.792-0.636-1.429-1.429-1.429s-1.429 0.636-1.429 1.429 0.636 1.429 1.429 1.429 1.429-0.636 1.429-1.429zM12.857 17.143c0-0.792-0.636-1.429-1.429-1.429s-1.429 0.636-1.429 1.429 0.636 1.429 1.429 1.429 1.429-0.636 1.429-1.429zM8.571 12.857c0-0.792-0.636-1.429-1.429-1.429s-1.429 0.636-1.429 1.429 0.636 1.429 1.429 1.429 1.429-0.636 1.429-1.429zM4.286 8.571c0-0.792-0.636-1.429-1.429-1.429s-1.429 0.636-1.429 1.429 0.636 1.429 1.429 1.429 1.429-0.636 1.429-1.429zM12.857 12.857c0-0.792-0.636-1.429-1.429-1.429s-1.429 0.636-1.429 1.429 0.636 1.429 1.429 1.429 1.429-0.636 1.429-1.429zM8.571 8.571c0-0.792-0.636-1.429-1.429-1.429s-1.429 0.636-1.429 1.429 0.636 1.429 1.429 1.429 1.429-0.636 1.429-1.429zM17.143 17.143v-4.286c0-0.781-0.647-1.429-1.429-1.429v0c-0.781 0-1.429 0.647-1.429 1.429v4.286c0 0.781 0.647 1.429 1.429 1.429v0c0.781 0 1.429-0.647 1.429-1.429zM12.857 8.571c0-0.792-0.636-1.429-1.429-1.429s-1.429 0.636-1.429 1.429 0.636 1.429 1.429 1.429 1.429-0.636 1.429-1.429zM17.143 5v-2.857c0-0.391-0.324-0.714-0.714-0.714h-14.286c-0.391 0-0.714 0.324-0.714 0.714v2.857c0 0.391 0.324 0.714 0.714 0.714h14.286c0.391 0 0.714-0.324 0.714-0.714zM17.143 8.571c0-0.792-0.636-1.429-1.429-1.429s-1.429 0.636-1.429 1.429 0.636 1.429 1.429 1.429 1.429-0.636 1.429-1.429zM18.571 1.429v17.143c0 0.781-0.647 1.429-1.429 1.429h-15.714c-0.781 0-1.429-0.647-1.429-1.429v-17.143c0-0.781 0.647-1.429 1.429-1.429h15.714c0.781 0 1.429 0.647 1.429 1.429z"></path>
</symbol>
<symbol id="gitlab" viewBox="0 0 20 20">
<title>gitlab</title>
<path d="M1.161 7.879l8.839 11.328-9.688-7.031c-0.268-0.201-0.379-0.547-0.279-0.859l1.127-3.438zM6.317 7.879h7.366l-3.683 11.328zM4.107 1.049l2.21 6.83h-5.156l2.21-6.83c0.123-0.346 0.614-0.346 0.737 0zM18.839 7.879l1.127 3.438c0.1 0.313-0.011 0.658-0.279 0.859l-9.688 7.031 8.839-11.328zM18.839 7.879h-5.156l2.21-6.83c0.123-0.346 0.614-0.346 0.737 0z"></path>
</symbol>
</defs>
</svg>

